<mxfile host="app.diagrams.net" modified="2022-04-28T19:11:51.660Z" agent="5.0 (X11; Linux x86_64) AppleWebKit/537.36 (KHTML, like Gecko) Chrome/99.0.4844.82 Safari/537.36" etag="821Fhj3X9SwddA5EKcOW" version="17.4.6" type="github">
  <diagram id="kIaWM0rmfheVfQp750Bq" name="Page-1">
    <mxGraphModel dx="782" dy="776" grid="1" gridSize="10" guides="1" tooltips="1" connect="1" arrows="1" fold="1" page="1" pageScale="1" pageWidth="850" pageHeight="1100" math="0" shadow="0">
      <root>
        <mxCell id="0" />
        <mxCell id="1" parent="0" />
        <mxCell id="-fdiTTk4n5M7R5Q_K_Ou-21" value="" style="group" vertex="1" connectable="0" parent="1">
          <mxGeometry x="340" y="40" width="155" height="136" as="geometry" />
        </mxCell>
        <mxCell id="-fdiTTk4n5M7R5Q_K_Ou-2" value="" style="rounded=1;whiteSpace=wrap;html=1;" vertex="1" parent="-fdiTTk4n5M7R5Q_K_Ou-21">
          <mxGeometry width="155" height="136" as="geometry" />
        </mxCell>
        <mxCell id="-fdiTTk4n5M7R5Q_K_Ou-1" value="&lt;br&gt;&lt;br&gt;" style="sketch=0;html=1;dashed=0;whitespace=wrap;fillColor=#2875E2;strokeColor=#ffffff;points=[[0.005,0.63,0],[0.1,0.2,0],[0.9,0.2,0],[0.5,0,0],[0.995,0.63,0],[0.72,0.99,0],[0.5,1,0],[0.28,0.99,0]];shape=mxgraph.kubernetes.icon;prIcon=pod" vertex="1" parent="-fdiTTk4n5M7R5Q_K_Ou-21">
          <mxGeometry x="52.5" y="40" width="50" height="48" as="geometry" />
        </mxCell>
        <mxCell id="-fdiTTk4n5M7R5Q_K_Ou-17" style="edgeStyle=orthogonalEdgeStyle;rounded=0;orthogonalLoop=1;jettySize=auto;html=1;entryX=0.5;entryY=0;entryDx=0;entryDy=0;" edge="1" parent="1" source="-fdiTTk4n5M7R5Q_K_Ou-2" target="-fdiTTk4n5M7R5Q_K_Ou-5">
          <mxGeometry relative="1" as="geometry" />
        </mxCell>
        <mxCell id="-fdiTTk4n5M7R5Q_K_Ou-19" style="edgeStyle=orthogonalEdgeStyle;rounded=0;orthogonalLoop=1;jettySize=auto;html=1;entryX=0.5;entryY=0;entryDx=0;entryDy=0;" edge="1" parent="1" source="-fdiTTk4n5M7R5Q_K_Ou-2" target="-fdiTTk4n5M7R5Q_K_Ou-13">
          <mxGeometry relative="1" as="geometry" />
        </mxCell>
        <mxCell id="-fdiTTk4n5M7R5Q_K_Ou-3" value="StackRox Central" style="text;html=1;strokeColor=none;fillColor=none;align=center;verticalAlign=middle;whiteSpace=wrap;rounded=0;" vertex="1" parent="1">
          <mxGeometry x="367.5" y="50" width="100" height="30" as="geometry" />
        </mxCell>
        <mxCell id="-fdiTTk4n5M7R5Q_K_Ou-4" value="Kubernetes Central" style="text;html=1;strokeColor=none;fillColor=none;align=center;verticalAlign=middle;whiteSpace=wrap;rounded=0;" vertex="1" parent="1">
          <mxGeometry x="367.5" y="140" width="100" height="30" as="geometry" />
        </mxCell>
        <mxCell id="-fdiTTk4n5M7R5Q_K_Ou-5" value="" style="rounded=1;whiteSpace=wrap;html=1;" vertex="1" parent="1">
          <mxGeometry x="150" y="230" width="155" height="136" as="geometry" />
        </mxCell>
        <mxCell id="-fdiTTk4n5M7R5Q_K_Ou-6" value="&lt;br&gt;&lt;br&gt;" style="sketch=0;html=1;dashed=0;whitespace=wrap;fillColor=#2875E2;strokeColor=#ffffff;points=[[0.005,0.63,0],[0.1,0.2,0],[0.9,0.2,0],[0.5,0,0],[0.995,0.63,0],[0.72,0.99,0],[0.5,1,0],[0.28,0.99,0]];shape=mxgraph.kubernetes.icon;prIcon=pod" vertex="1" parent="1">
          <mxGeometry x="202.5" y="270" width="50" height="48" as="geometry" />
        </mxCell>
        <mxCell id="-fdiTTk4n5M7R5Q_K_Ou-7" value="Sensor" style="text;html=1;strokeColor=none;fillColor=none;align=center;verticalAlign=middle;whiteSpace=wrap;rounded=0;" vertex="1" parent="1">
          <mxGeometry x="177.5" y="240" width="100" height="30" as="geometry" />
        </mxCell>
        <mxCell id="-fdiTTk4n5M7R5Q_K_Ou-8" value="Kubernetes A" style="text;html=1;strokeColor=none;fillColor=none;align=center;verticalAlign=middle;whiteSpace=wrap;rounded=0;" vertex="1" parent="1">
          <mxGeometry x="177.5" y="330" width="100" height="30" as="geometry" />
        </mxCell>
        <mxCell id="-fdiTTk4n5M7R5Q_K_Ou-9" value="" style="rounded=1;whiteSpace=wrap;html=1;" vertex="1" parent="1">
          <mxGeometry x="340" y="230" width="155" height="136" as="geometry" />
        </mxCell>
        <mxCell id="-fdiTTk4n5M7R5Q_K_Ou-10" value="&lt;br&gt;&lt;br&gt;" style="sketch=0;html=1;dashed=0;whitespace=wrap;fillColor=#2875E2;strokeColor=#ffffff;points=[[0.005,0.63,0],[0.1,0.2,0],[0.9,0.2,0],[0.5,0,0],[0.995,0.63,0],[0.72,0.99,0],[0.5,1,0],[0.28,0.99,0]];shape=mxgraph.kubernetes.icon;prIcon=pod" vertex="1" parent="1">
          <mxGeometry x="392.5" y="270" width="50" height="48" as="geometry" />
        </mxCell>
        <mxCell id="-fdiTTk4n5M7R5Q_K_Ou-11" value="Sensor" style="text;html=1;strokeColor=none;fillColor=none;align=center;verticalAlign=middle;whiteSpace=wrap;rounded=0;" vertex="1" parent="1">
          <mxGeometry x="367.5" y="240" width="100" height="30" as="geometry" />
        </mxCell>
        <mxCell id="-fdiTTk4n5M7R5Q_K_Ou-12" value="Kubernetes B" style="text;html=1;strokeColor=none;fillColor=none;align=center;verticalAlign=middle;whiteSpace=wrap;rounded=0;" vertex="1" parent="1">
          <mxGeometry x="367.5" y="330" width="100" height="30" as="geometry" />
        </mxCell>
        <mxCell id="-fdiTTk4n5M7R5Q_K_Ou-13" value="" style="rounded=1;whiteSpace=wrap;html=1;" vertex="1" parent="1">
          <mxGeometry x="520" y="230" width="155" height="136" as="geometry" />
        </mxCell>
        <mxCell id="-fdiTTk4n5M7R5Q_K_Ou-14" value="&lt;br&gt;&lt;br&gt;" style="sketch=0;html=1;dashed=0;whitespace=wrap;fillColor=#2875E2;strokeColor=#ffffff;points=[[0.005,0.63,0],[0.1,0.2,0],[0.9,0.2,0],[0.5,0,0],[0.995,0.63,0],[0.72,0.99,0],[0.5,1,0],[0.28,0.99,0]];shape=mxgraph.kubernetes.icon;prIcon=pod" vertex="1" parent="1">
          <mxGeometry x="572.5" y="268" width="50" height="48" as="geometry" />
        </mxCell>
        <mxCell id="-fdiTTk4n5M7R5Q_K_Ou-15" value="Sensor" style="text;html=1;strokeColor=none;fillColor=none;align=center;verticalAlign=middle;whiteSpace=wrap;rounded=0;" vertex="1" parent="1">
          <mxGeometry x="547.5" y="238" width="100" height="30" as="geometry" />
        </mxCell>
        <mxCell id="-fdiTTk4n5M7R5Q_K_Ou-16" value="Kubernetes C" style="text;html=1;strokeColor=none;fillColor=none;align=center;verticalAlign=middle;whiteSpace=wrap;rounded=0;" vertex="1" parent="1">
          <mxGeometry x="547.5" y="328" width="100" height="30" as="geometry" />
        </mxCell>
        <mxCell id="-fdiTTk4n5M7R5Q_K_Ou-22" style="edgeStyle=orthogonalEdgeStyle;rounded=0;orthogonalLoop=1;jettySize=auto;html=1;entryX=0.5;entryY=0;entryDx=0;entryDy=0;" edge="1" parent="1" source="-fdiTTk4n5M7R5Q_K_Ou-2" target="-fdiTTk4n5M7R5Q_K_Ou-9">
          <mxGeometry relative="1" as="geometry" />
        </mxCell>
      </root>
    </mxGraphModel>
  </diagram>
</mxfile>
